# xmcd
#
# Track frame offsets:
#	150
#	20462
#	33101
#	53822
#	71026
#	87196
#	105405
#	122145
#	138252
#	155930
#	172215
#	190962
#	205176
#	224458
#	243010
#
# Disc length: 3382 seconds
#
# Revision: 0
# Processed by: cddbd v1.4PL0 Copyright (c) Steve Scherf et al.
# Submitted via: EasyCDDAExtractor 4.5.0.2
#
DISCID=d40d340f
DTITLE=PHILIPPE MENARD - A FORTNIGHT IN SPIDERLAND
DYEAR=1900
DGENRE=Blues
TTITLE0=One more mile
TTITLE1=telephone woman blues
TTITLE2=i love everyone who knows wath love means
TTITLE3=happy kidney place
TTITLE4=the day the gang often was nine
TTITLE5=bomber's fishing somewhere
TTITLE6=not thise kind of man
TTITLE7=you're not for me
TTITLE8=bigeottiére song
TTITLE9=woke up this morning blues blues
TTITLE10=chattin' thru the night
TTITLE11=i smell a rat
TTITLE12=rock me slow, mister blues
TTITLE13=we got to burn the rockshools down
TTITLE14=j'vais m'tirer avec le chien des voisins
EXTD=
EXTT0=
EXTT1=
EXTT2=
EXTT3=
EXTT4=
EXTT5=
EXTT6=
EXTT7=
EXTT8=
EXTT9=
EXTT10=
EXTT11=
EXTT12=
EXTT13=
EXTT14=
PLAYORDER=
